# xmcd
#
# Track frame offsets:
#	150
#	3388
#	12391
#	25241
#	26816
#	39440
#	44939
#	57927
#	58436
#	77816
#	90869
#	100342
#	113301
#	138879
#	157784
#	160137
#	174846
#	175527
#	191288
#	213778
#	220715
#	237836
#	259155
#	260129
#	290145
#
# Disc length: 3956 seconds
# Revision: 1
# Processed by: cddbd v1.5.2PL0 Copyright (c) Steve Scherf et al.
# Submitted via: dBpowerAMP V12.0
#
DISCID=4b0f7219
DTITLE=David Grier - Live at the Linda
DYEAR=2007
DGENRE=Country
TTITLE0=Introduction
TTITLE1=Intro-Have You Ever Been to England
TTITLE2=Have You Been to England
TTITLE3=Intro-High Atop Princess Cove
TTITLE4=High Atop Princess Cove
TTITLE5=Things People Say
TTITLE6=As it Rolls to The Sea
TTITLE7=Intro-Road to Hope
TTITLE8=Road to Hope
TTITLE9=The Old Spinning Wheel
TTITLE10=Glass Eye
TTITLE11=America the Beautiful - Yesterday
TTITLE12=Intro-Red Haired Boy
TTITLE13=Red Haired Boy
TTITLE14=Intro-The End of a Good Day
TTITLE15=The End of a  Good Day
TTITLE16=Intor-Redwing
TTITLE17=Redwing
TTITLE18=Killing Me Softly
TTITLE19=Dolly Story
TTITLE20=Grammy Story
TTITLE21=Crossing The Cumberland - Old Ebenezer Scrooge
TTITLE22=Thank You and Goodnight
TTITLE23=Bonaparte's Retreat
TTITLE24=Randy Lynn Rag
EXTD=
EXTT0=
EXTT1=
EXTT2=
EXTT3=
EXTT4=
EXTT5=
EXTT6=
EXTT7=
EXTT8=
EXTT9=
EXTT10=
EXTT11=
EXTT12=
EXTT13=
EXTT14=
EXTT15=
EXTT16=
EXTT17=
EXTT18=
EXTT19=
EXTT20=
EXTT21=
EXTT22=
EXTT23=
EXTT24=
PLAYORDER=
